{
    "asset" : {
        "generator" : "Khronos glTF Blender I/O v1.1.45",
        "version" : "2.0"
    },
    "scene" : 0,
    "scenes" : [
        {
            "name" : "Scene",
            "nodes" : [
                0
            ]
        }
    ],
    "nodes" : [
        {
            "mesh" : 0,
            "name" : "Plane",
            "rotation" : [
                0,
                0,
                -0.3737342357635498,
                -0.9275358319282532
            ],
            "scale" : [
                3.247283458709717,
                3.3328046798706055,
                3.209115743637085
            ],
            "translation" : [
                -0.06455609202384949,
                44.90577697753906,
                -15.990730285644531
            ]
        }
    ],
    "materials" : [
        {
            "doubleSided" : true,
            "emissiveFactor" : [
                0,
                0,
                0
            ],
            "name" : "Material.002",
            "pbrMetallicRoughness" : {
                "baseColorTexture" : {
                    "index" : 0,
                    "texCoord" : 0
                },
                "metallicFactor" : 1,
                "roughnessFactor" : 0.20000000298023224
            }
        },
        {
            "doubleSided" : true,
            "emissiveFactor" : [
                0,
                0,
                0
            ],
            "name" : "Material.005",
            "pbrMetallicRoughness" : {
                "baseColorTexture" : {
                    "index" : 1,
                    "texCoord" : 0
                },
                "metallicFactor" : 1,
                "roughnessFactor" : 0.20000000298023224
            }
        }
    ],
    "meshes" : [
        {
            "name" : "Plane",
            "primitives" : [
                {
                    "attributes" : {
                        "POSITION" : 0,
                        "NORMAL" : 1,
                        "TEXCOORD_0" : 2
                    },
                    "indices" : 3,
                    "material" : 0
                },
                {
                    "attributes" : {
                        "POSITION" : 4,
                        "NORMAL" : 5,
                        "TEXCOORD_0" : 6
                    },
                    "indices" : 7,
                    "material" : 1
                }
            ]
        }
    ],
    "textures" : [
        {
            "source" : 0
        },
        {
            "source" : 1
        }
    ],
    "images" : [
        {
            "bufferView" : 4,
            "mimeType" : "image/png",
            "name" : "mitutada_kadai-mitutada_hennsyuugo2.png"
        },
        {
            "bufferView" : 9,
            "mimeType" : "image/png",
            "name" : "mitutada_kadai.png-mitutada_hennsyuugo2.png"
        }
    ],
    "accessors" : [
        {
            "bufferView" : 0,
            "componentType" : 5126,
            "count" : 1173,
            "max" : [
                1.491245985031128,
                -1.027606725692749,
                33.518577575683594
            ],
            "min" : [
                -1.7880795001983643,
                -2.7672622203826904,
                -15.45296859741211
            ],
            "type" : "VEC3"
        },
        {
            "bufferView" : 1,
            "componentType" : 5126,
            "count" : 1173,
            "type" : "VEC3"
        },
        {
            "bufferView" : 2,
            "componentType" : 5126,
            "count" : 1173,
            "type" : "VEC2"
        },
        {
            "bufferView" : 3,
            "componentType" : 5123,
            "count" : 3675,
            "type" : "SCALAR"
        },
        {
            "bufferView" : 5,
            "componentType" : 5126,
            "count" : 1173,
            "max" : [
                -2.939561367034912,
                3.203813076019287,
                33.518577575683594
            ],
            "min" : [
                -4.715701103210449,
                0.003973603248596191,
                -15.45296859741211
            ],
            "type" : "VEC3"
        },
        {
            "bufferView" : 6,
            "componentType" : 5126,
            "count" : 1173,
            "type" : "VEC3"
        },
        {
            "bufferView" : 7,
            "componentType" : 5126,
            "count" : 1173,
            "type" : "VEC2"
        },
        {
            "bufferView" : 8,
            "componentType" : 5123,
            "count" : 3675,
            "type" : "SCALAR"
        }
    ],
    "bufferViews" : [
        {
            "buffer" : 0,
            "byteLength" : 14076,
            "byteOffset" : 0
        },
        {
            "buffer" : 0,
            "byteLength" : 14076,
            "byteOffset" : 14076
        },
        {
            "buffer" : 0,
            "byteLength" : 9384,
            "byteOffset" : 28152
        },
        {
            "buffer" : 0,
            "byteLength" : 7350,
            "byteOffset" : 37536
        },
        {
            "buffer" : 0,
            "byteLength" : 297572,
            "byteOffset" : 44888
        },
        {
            "buffer" : 0,
            "byteLength" : 14076,
            "byteOffset" : 342460
        },
        {
            "buffer" : 0,
            "byteLength" : 14076,
            "byteOffset" : 356536
        },
        {
            "buffer" : 0,
            "byteLength" : 9384,
            "byteOffset" : 370612
        },
        {
            "buffer" : 0,
            "byteLength" : 7350,
            "byteOffset" : 379996
        },
        {
            "buffer" : 0,
            "byteLength" : 297572,
            "byteOffset" : 387348
        }
    ],
    "buffers" : [
        {
            "byteLength" : 684920,
            "uri" : "data:application/octet-stream;base64,"
        }
    ]
}
