{
    "asset" : {
        "generator" : "Khronos glTF Blender I/O v1.1.45",
        "version" : "2.0"
    },
    "scene" : 0,
    "scenes" : [
        {
            "name" : "Scene",
            "nodes" : [
                0
            ]
        }
    ],
    "nodes" : [
        {
            "mesh" : 0,
            "name" : "Plane",
            "rotation" : [
                0,
                0,
                -0.9275357127189636,
                0.3737345039844513
            ],
            "scale" : [
                1.323698878288269,
                1.3585602045059204,
                1.308140516281128
            ],
            "translation" : [
                -7.066367149353027,
                -12.377178192138672,
                -15.990730285644531
            ]
        }
    ],
    "materials" : [
        {
            "doubleSided" : true,
            "emissiveFactor" : [
                0,
                0,
                0
            ],
            "name" : "Material.002",
            "pbrMetallicRoughness" : {
                "baseColorTexture" : {
                    "index" : 0,
                    "texCoord" : 0
                },
                "metallicFactor" : 1,
                "roughnessFactor" : 0.20000000298023224
            }
        }
    ],
    "meshes" : [
        {
            "name" : "Plane",
            "primitives" : [
                {
                    "attributes" : {
                        "POSITION" : 0,
                        "NORMAL" : 1,
                        "TEXCOORD_0" : 2
                    },
                    "indices" : 3,
                    "material" : 0
                }
            ]
        }
    ],
    "textures" : [
        {
            "source" : 0
        }
    ],
    "images" : [
        {
            "bufferView" : 4,
            "mimeType" : "image/png",
            "name" : "mitutada_kadai"
        }
    ],
    "accessors" : [
        {
            "bufferView" : 0,
            "componentType" : 5126,
            "count" : 1173,
            "max" : [
                1.491245985031128,
                -1.027606725692749,
                33.518577575683594
            ],
            "min" : [
                -1.7880795001983643,
                -2.7672622203826904,
                -15.45296859741211
            ],
            "type" : "VEC3"
        },
        {
            "bufferView" : 1,
            "componentType" : 5126,
            "count" : 1173,
            "type" : "VEC3"
        },
        {
            "bufferView" : 2,
            "componentType" : 5126,
            "count" : 1173,
            "type" : "VEC2"
        },
        {
            "bufferView" : 3,
            "componentType" : 5123,
            "count" : 3675,
            "type" : "SCALAR"
        }
    ],
    "bufferViews" : [
        {
            "buffer" : 0,
            "byteLength" : 14076,
            "byteOffset" : 0
        },
        {
            "buffer" : 0,
            "byteLength" : 14076,
            "byteOffset" : 14076
        },
        {
            "buffer" : 0,
            "byteLength" : 9384,
            "byteOffset" : 28152
        },
        {
            "buffer" : 0,
            "byteLength" : 7350,
            "byteOffset" : 37536
        },
        {
            "buffer" : 0,
            "byteLength" : 199875,
            "byteOffset" : 44888
        }
    ],
    "buffers" : [
        {
            "byteLength" : 244764,
            "uri" : "data:application/octet-stream;base64,"
        }
    ]
}
