{
    "asset" : {
        "generator" : "Khronos glTF Blender I/O v1.1.45",
        "version" : "2.0"
    },
    "scene" : 0,
    "scenes" : [
        {
            "name" : "Scene",
            "nodes" : [
                0
            ]
        }
    ],
    "nodes" : [
        {
            "mesh" : 0,
            "name" : "Plane",
            "rotation" : [
                0,
                0,
                -0.3737342357635498,
                -0.9275358319282532
            ],
            "scale" : [
                3.247283458709717,
                3.3328046798706055,
                3.209115743637085
            ],
            "translation" : [
                -0.06455609202384949,
                44.90577697753906,
                -15.990730285644531
            ]
        }
    ],
    "materials" : [
        {
            "doubleSided" : true,
            "emissiveFactor" : [
                0,
                0,
                0
            ],
            "name" : "Material.005",
            "pbrMetallicRoughness" : {
                "baseColorTexture" : {
                    "index" : 0,
                    "texCoord" : 0
                },
                "metallicFactor" : 1,
                "roughnessFactor" : 0.20000000298023224
            }
        }
    ],
    "meshes" : [
        {
            "name" : "Plane",
            "primitives" : [
                {
                    "attributes" : {
                        "POSITION" : 0,
                        "NORMAL" : 1,
                        "TEXCOORD_0" : 2
                    },
                    "indices" : 3,
                    "material" : 0
                }
            ]
        }
    ],
    "textures" : [
        {
            "source" : 0
        }
    ],
    "images" : [
        {
            "bufferView" : 4,
            "mimeType" : "image/png",
            "name" : "mitutada_kadai"
        }
    ],
    "accessors" : [
        {
            "bufferView" : 0,
            "componentType" : 5126,
            "count" : 2346,
            "max" : [
                1.491245985031128,
                3.203813076019287,
                33.518577575683594
            ],
            "min" : [
                -4.715701103210449,
                -2.7672622203826904,
                -15.45296859741211
            ],
            "type" : "VEC3"
        },
        {
            "bufferView" : 1,
            "componentType" : 5126,
            "count" : 2346,
            "type" : "VEC3"
        },
        {
            "bufferView" : 2,
            "componentType" : 5126,
            "count" : 2346,
            "type" : "VEC2"
        },
        {
            "bufferView" : 3,
            "componentType" : 5123,
            "count" : 7350,
            "type" : "SCALAR"
        }
    ],
    "bufferViews" : [
        {
            "buffer" : 0,
            "byteLength" : 28152,
            "byteOffset" : 0
        },
        {
            "buffer" : 0,
            "byteLength" : 28152,
            "byteOffset" : 28152
        },
        {
            "buffer" : 0,
            "byteLength" : 18768,
            "byteOffset" : 56304
        },
        {
            "buffer" : 0,
            "byteLength" : 14700,
            "byteOffset" : 75072
        },
        {
            "buffer" : 0,
            "byteLength" : 199875,
            "byteOffset" : 89772
        }
    ],
    "buffers" : [
        {
            "byteLength" : 289648,
            "uri" : "data:application/octet-stream;base64,"
        }
    ]
}
