{
    "asset" : {
        "generator" : "Khronos glTF Blender I/O v1.1.45",
        "version" : "2.0"
    },
    "scene" : 0,
    "scenes" : [
        {
            "name" : "Scene",
            "nodes" : [
                0,
                1,
                2,
                3,
                4
            ]
        }
    ],
    "nodes" : [
        {
            "name" : "Light",
            "rotation" : [
                -0.0005646219360642135,
                0.9938287734985352,
                0.0025175821501761675,
                -0.1108950525522232
            ],
            "scale" : [
                1.8432172536849976,
                1.8432172536849976,
                1.8432172536849976
            ],
            "translation" : [
                0.971937894821167,
                22.02433967590332,
                -13.682031631469727
            ]
        },
        {
            "mesh" : 0,
            "name" : "Cube.002",
            "scale" : [
                0.429840624332428,
                0.5547880530357361,
                0.6676076650619507
            ],
            "translation" : [
                0.32537007331848145,
                -18.75833511352539,
                -13.434383392333984
            ]
        },
        {
            "mesh" : 1,
            "name" : "Plane",
            "rotation" : [
                0,
                0,
                -0.9201369881629944,
                -0.3915966749191284
            ],
            "scale" : [
                0.23516227304935455,
                0.24135558307170868,
                0.23239825665950775
            ],
            "translation" : [
                -0.06455609202384949,
                -9.8323974609375,
                -15.990730285644531
            ]
        },
        {
            "name" : "Light.003",
            "rotation" : [
                0.5695742964744568,
                0.8144207000732422,
                0.06566888093948364,
                -0.08939599245786667
            ],
            "scale" : [
                1.843216896057129,
                1.843216896057129,
                1.843217134475708
            ],
            "translation" : [
                8.026579856872559,
                -6.642584323883057,
                -13.544656753540039
            ]
        },
        {
            "name" : "Light.004",
            "rotation" : [
                -0.09134501218795776,
                0.06292960047721863,
                0.8050761222839355,
                0.5827078223228455
            ],
            "scale" : [
                1.8432172536849976,
                1.843217134475708,
                1.8432172536849976
            ],
            "translation" : [
                -8.919058799743652,
                -12.946123123168945,
                -13.544656753540039
            ]
        }
    ],
    "materials" : [
        {
            "doubleSided" : true,
            "emissiveFactor" : [
                0,
                0,
                0
            ],
            "name" : "Material.004",
            "pbrMetallicRoughness" : {
                "baseColorFactor" : [
                    0.001546952873468399,
                    0.001546952873468399,
                    0.001546952873468399,
                    1
                ],
                "metallicFactor" : 0,
                "roughnessFactor" : 1
            }
        },
        {
            "doubleSided" : true,
            "emissiveFactor" : [
                0,
                0,
                0
            ],
            "name" : "Material.002",
            "pbrMetallicRoughness" : {
                "baseColorTexture" : {
                    "index" : 0,
                    "texCoord" : 0
                },
                "metallicFactor" : 1,
                "roughnessFactor" : 0.20000000298023224
            }
        }
    ],
    "meshes" : [
        {
            "name" : "Cube.002",
            "primitives" : [
                {
                    "attributes" : {
                        "POSITION" : 0,
                        "NORMAL" : 1,
                        "TEXCOORD_0" : 2
                    },
                    "indices" : 3,
                    "material" : 0
                }
            ]
        },
        {
            "name" : "Plane",
            "primitives" : [
                {
                    "attributes" : {
                        "POSITION" : 4,
                        "NORMAL" : 5,
                        "TEXCOORD_0" : 6
                    },
                    "indices" : 7,
                    "material" : 1
                }
            ]
        }
    ],
    "textures" : [
        {
            "source" : 0
        }
    ],
    "images" : [
        {
            "bufferView" : 8,
            "mimeType" : "image/png",
            "name" : "mitutada_kadai-mitutada_hennsyuugo2.png"
        }
    ],
    "accessors" : [
        {
            "bufferView" : 0,
            "componentType" : 5126,
            "count" : 24,
            "max" : [
                10,
                10,
                10
            ],
            "min" : [
                -10,
                -10,
                -10
            ],
            "type" : "VEC3"
        },
        {
            "bufferView" : 1,
            "componentType" : 5126,
            "count" : 24,
            "type" : "VEC3"
        },
        {
            "bufferView" : 2,
            "componentType" : 5126,
            "count" : 24,
            "type" : "VEC2"
        },
        {
            "bufferView" : 3,
            "componentType" : 5123,
            "count" : 36,
            "type" : "SCALAR"
        },
        {
            "bufferView" : 4,
            "componentType" : 5126,
            "count" : 1173,
            "max" : [
                1.491245985031128,
                -1.027606725692749,
                33.518577575683594
            ],
            "min" : [
                -1.7880795001983643,
                -2.7672622203826904,
                -15.45296859741211
            ],
            "type" : "VEC3"
        },
        {
            "bufferView" : 5,
            "componentType" : 5126,
            "count" : 1173,
            "type" : "VEC3"
        },
        {
            "bufferView" : 6,
            "componentType" : 5126,
            "count" : 1173,
            "type" : "VEC2"
        },
        {
            "bufferView" : 7,
            "componentType" : 5123,
            "count" : 3675,
            "type" : "SCALAR"
        }
    ],
    "bufferViews" : [
        {
            "buffer" : 0,
            "byteLength" : 288,
            "byteOffset" : 0
        },
        {
            "buffer" : 0,
            "byteLength" : 288,
            "byteOffset" : 288
        },
        {
            "buffer" : 0,
            "byteLength" : 192,
            "byteOffset" : 576
        },
        {
            "buffer" : 0,
            "byteLength" : 72,
            "byteOffset" : 768
        },
        {
            "buffer" : 0,
            "byteLength" : 14076,
            "byteOffset" : 840
        },
        {
            "buffer" : 0,
            "byteLength" : 14076,
            "byteOffset" : 14916
        },
        {
            "buffer" : 0,
            "byteLength" : 9384,
            "byteOffset" : 28992
        },
        {
            "buffer" : 0,
            "byteLength" : 7350,
            "byteOffset" : 38376
        },
        {
            "buffer" : 0,
            "byteLength" : 297572,
            "byteOffset" : 45728
        }
    ],
    "buffers" : [
        {
            "byteLength" : 343300,
            "uri" : "data:application/octet-stream;base64,"
        }
    ]
}
