{
    "asset" : {
        "generator" : "Khronos glTF Blender I/O v1.1.45",
        "version" : "2.0"
    },
    "scene" : 0,
    "scenes" : [
        {
            "name" : "Scene",
            "nodes" : [
                0
            ]
        }
    ],
    "nodes" : [
        {
            "mesh" : 0,
            "name" : "tousin.002",
            "rotation" : [
                0.3735680878162384,
                -0.6003721356391907,
                0.6003720164299011,
                -0.37356874346733093
            ],
            "scale" : [
                3.7590818405151367,
                3.6663057804107666,
                3.7590818405151367
            ],
            "translation" : [
                29.358699798583984,
                44.79518508911133,
                26.814674377441406
            ]
        }
    ],
    "materials" : [
        {
            "doubleSided" : true,
            "emissiveFactor" : [
                0,
                0,
                0
            ],
            "name" : "tousin.002",
            "normalTexture" : {
                "index" : 0,
                "scale" : 0.10000000149011612,
                "texCoord" : 0
            },
            "pbrMetallicRoughness" : {
                "baseColorTexture" : {
                    "index" : 1,
                    "texCoord" : 0
                },
                "metallicFactor" : 1,
                "roughnessFactor" : 0.20000000298023224
            }
        }
    ],
    "meshes" : [
        {
            "name" : "Plane.002",
            "primitives" : [
                {
                    "attributes" : {
                        "POSITION" : 0,
                        "NORMAL" : 1,
                        "TEXCOORD_0" : 2
                    },
                    "indices" : 3,
                    "material" : 0
                }
            ]
        }
    ],
    "textures" : [
        {
            "source" : 0
        },
        {
            "source" : 1
        }
    ],
    "images" : [
        {
            "bufferView" : 4,
            "mimeType" : "image/png",
            "name" : "mumei _normal"
        },
        {
            "bufferView" : 5,
            "mimeType" : "image/png",
            "name" : "mumei"
        }
    ],
    "accessors" : [
        {
            "bufferView" : 0,
            "componentType" : 5126,
            "count" : 2334,
            "max" : [
                0.48476487398147583,
                21.180076599121094,
                5.1684184074401855
            ],
            "min" : [
                -2.382507085800171,
                -17.45257568359375,
                -0.48476487398147583
            ],
            "type" : "VEC3"
        },
        {
            "bufferView" : 1,
            "componentType" : 5126,
            "count" : 2334,
            "type" : "VEC3"
        },
        {
            "bufferView" : 2,
            "componentType" : 5126,
            "count" : 2334,
            "type" : "VEC2"
        },
        {
            "bufferView" : 3,
            "componentType" : 5123,
            "count" : 6714,
            "type" : "SCALAR"
        }
    ],
    "bufferViews" : [
        {
            "buffer" : 0,
            "byteLength" : 28008,
            "byteOffset" : 0
        },
        {
            "buffer" : 0,
            "byteLength" : 28008,
            "byteOffset" : 28008
        },
        {
            "buffer" : 0,
            "byteLength" : 18672,
            "byteOffset" : 56016
        },
        {
            "buffer" : 0,
            "byteLength" : 13428,
            "byteOffset" : 74688
        },
        {
            "buffer" : 0,
            "byteLength" : 91963,
            "byteOffset" : 88116
        },
        {
            "buffer" : 0,
            "byteLength" : 472974,
            "byteOffset" : 180080
        }
    ],
    "buffers" : [
        {
            "byteLength" : 653056,
            "uri" : "data:application/octet-stream;base64,"
        }
    ]
}
