{
    "asset" : {
        "generator" : "Khronos glTF Blender I/O v1.1.45",
        "version" : "2.0"
    },
    "scene" : 0,
    "scenes" : [
        {
            "name" : "Scene",
            "nodes" : [
                0
            ]
        }
    ],
    "nodes" : [
        {
            "mesh" : 0,
            "name" : "tousin.001",
            "rotation" : [
                0.11210976541042328,
                0.6981627941131592,
                -0.6981630325317383,
                -0.1121092140674591
            ],
            "scale" : [
                0.28245145082473755,
                0.2754804491996765,
                0.28245145082473755
            ],
            "translation" : [
                0.42336034774780273,
                -9.475876808166504,
                13.711960792541504
            ]
        }
    ],
    "materials" : [
        {
            "doubleSided" : true,
            "emissiveFactor" : [
                0,
                0,
                0
            ],
            "name" : "tousin.001",
            "pbrMetallicRoughness" : {
                "baseColorTexture" : {
                    "index" : 0,
                    "texCoord" : 0
                },
                "metallicFactor" : 1,
                "roughnessFactor" : 0.20000000298023224
            }
        }
    ],
    "meshes" : [
        {
            "name" : "Plane.001",
            "primitives" : [
                {
                    "attributes" : {
                        "POSITION" : 0,
                        "NORMAL" : 1,
                        "TEXCOORD_0" : 2
                    },
                    "indices" : 3,
                    "material" : 0
                }
            ]
        }
    ],
    "textures" : [
        {
            "source" : 0
        }
    ],
    "images" : [
        {
            "bufferView" : 4,
            "mimeType" : "image/png",
            "name" : "mumei"
        }
    ],
    "accessors" : [
        {
            "bufferView" : 0,
            "componentType" : 5126,
            "count" : 803,
            "max" : [
                0.48476487398147583,
                21.18006706237793,
                1.487884759902954
            ],
            "min" : [
                -1.4878841638565063,
                -17.45257568359375,
                -0.48476487398147583
            ],
            "type" : "VEC3"
        },
        {
            "bufferView" : 1,
            "componentType" : 5126,
            "count" : 803,
            "type" : "VEC3"
        },
        {
            "bufferView" : 2,
            "componentType" : 5126,
            "count" : 803,
            "type" : "VEC2"
        },
        {
            "bufferView" : 3,
            "componentType" : 5123,
            "count" : 3357,
            "type" : "SCALAR"
        }
    ],
    "bufferViews" : [
        {
            "buffer" : 0,
            "byteLength" : 9636,
            "byteOffset" : 0
        },
        {
            "buffer" : 0,
            "byteLength" : 9636,
            "byteOffset" : 9636
        },
        {
            "buffer" : 0,
            "byteLength" : 6424,
            "byteOffset" : 19272
        },
        {
            "buffer" : 0,
            "byteLength" : 6714,
            "byteOffset" : 25696
        },
        {
            "buffer" : 0,
            "byteLength" : 159525,
            "byteOffset" : 32412
        }
    ],
    "buffers" : [
        {
            "byteLength" : 191940,
            "uri" : "data:application/octet-stream;base64,"
        }
    ]
}
