{
    "asset" : {
        "generator" : "Khronos glTF Blender I/O v1.1.45",
        "version" : "2.0"
    },
    "scene" : 0,
    "scenes" : [
        {
            "name" : "Scene",
            "nodes" : [
                0,
                1,
                2,
                3,
                4,
                5,
                6,
                7,
                8,
                9,
                10
            ]
        }
    ],
    "nodes" : [
        {
            "mesh" : 0,
            "name" : "Cube",
            "scale" : [
                0.6144056916236877,
                0.6144056916236877,
                0.6144056916236877
            ],
            "translation" : [
                -0.14878830313682556,
                -1.336343765258789,
                -0.04297773540019989
            ]
        },
        {
            "name" : "Light",
            "rotation" : [
                -0.0005646219360642135,
                0.9938287734985352,
                0.0025175821501761675,
                -0.1108950525522232
            ],
            "scale" : [
                0.6144057512283325,
                0.6144056916236877,
                0.6144056916236877
            ],
            "translation" : [
                0.06673431396484375,
                5.0309977531433105,
                -4.634982585906982
            ]
        },
        {
            "mesh" : 1,
            "name" : "Cube.002",
            "scale" : [
                0.14328022301197052,
                0.18492935597896576,
                0.2225358933210373
            ],
            "translation" : [
                -0.14878830313682556,
                -8.563226699829102,
                -4.552433490753174
            ]
        },
        {
            "mesh" : 2,
            "name" : "Cube.003",
            "scale" : [
                0.14328022301197052,
                0.18492935597896576,
                0.2225358933210373
            ],
            "translation" : [
                -0.14878830313682556,
                -8.563226699829102,
                4.518198490142822
            ]
        },
        {
            "mesh" : 3,
            "name" : "Plane",
            "rotation" : [
                0,
                0,
                -0.9201369881629944,
                -0.3915966749191284
            ],
            "scale" : [
                0.07838742434978485,
                0.0804518610239029,
                0.07746608555316925
            ],
            "translation" : [
                -0.27876368165016174,
                -5.58791446685791,
                -5.4045491218566895
            ]
        },
        {
            "mesh" : 4,
            "name" : "tousin.001",
            "rotation" : [
                0.11210976541042328,
                0.6981627941131592,
                -0.6981630325317383,
                -0.1121092140674591
            ],
            "scale" : [
                0.09415048360824585,
                0.09182681888341904,
                0.09415048360824585
            ],
            "translation" : [
                -0.11612486839294434,
                -5.469074249267578,
                4.4963483810424805
            ]
        },
        {
            "name" : "Light.001",
            "rotation" : [
                -0.0005646219360642135,
                0.9938287734985352,
                0.0025175821501761675,
                -0.1108950525522232
            ],
            "scale" : [
                0.6144057512283325,
                0.6144056916236877,
                0.6144056916236877
            ],
            "translation" : [
                0.06673431396484375,
                5.0309977531433105,
                4.9635233879089355
            ]
        },
        {
            "name" : "Light.003",
            "rotation" : [
                0.5695742964744568,
                0.8144207000732422,
                0.06566888093948364,
                -0.08939599245786667
            ],
            "scale" : [
                0.6144056916236877,
                0.6144056916236877,
                0.6144056916236877
            ],
            "translation" : [
                2.4182815551757812,
                -4.524643421173096,
                -4.58919095993042
            ]
        },
        {
            "name" : "Light.002",
            "rotation" : [
                0.41766926646232605,
                0.9018027782440186,
                0.04894573241472244,
                -0.09954085946083069
            ],
            "scale" : [
                0.6144056916236877,
                0.6144057512283325,
                0.6144056916236877
            ],
            "translation" : [
                2.4914002418518066,
                -3.2062485218048096,
                4.3046064376831055
            ]
        },
        {
            "name" : "Light.005",
            "rotation" : [
                -0.06103754788637161,
                0.09262007474899292,
                0.5274196863174438,
                0.8423327207565308
            ],
            "scale" : [
                0.6144056916236877,
                0.6144056916236877,
                0.6144056916236877
            ],
            "translation" : [
                -5.216174125671387,
                -4.307897090911865,
                4.3046064376831055
            ]
        },
        {
            "name" : "Light.004",
            "rotation" : [
                -0.09134501218795776,
                0.06292960047721863,
                0.8050761222839355,
                0.5827078223228455
            ],
            "scale" : [
                0.6144056916236877,
                0.6144056916236877,
                0.6144056916236877
            ],
            "translation" : [
                -3.230264663696289,
                -6.625823020935059,
                -4.58919095993042
            ]
        }
    ],
    "materials" : [
        {
            "doubleSided" : true,
            "emissiveFactor" : [
                0,
                0,
                0
            ],
            "name" : "Material",
            "normalTexture" : {
                "index" : 0,
                "texCoord" : 0
            },
            "pbrMetallicRoughness" : {
                "baseColorFactor" : [
                    0.003934236243367195,
                    0.003934236243367195,
                    0.003934236243367195,
                    1
                ],
                "metallicFactor" : 0,
                "roughnessFactor" : 1
            }
        },
        {
            "alphaMode" : "BLEND",
            "doubleSided" : true,
            "emissiveFactor" : [
                0.5045859217643738,
                0.5870676636695862,
                0.7230334281921387
            ],
            "name" : "Material.001",
            "pbrMetallicRoughness" : {
                "baseColorFactor" : [
                    1,
                    1,
                    1,
                    1
                ],
                "metallicFactor" : 0,
                "roughnessFactor" : 0
            }
        },
        {
            "doubleSided" : true,
            "emissiveFactor" : [
                0,
                0,
                0
            ],
            "name" : "Material.003",
            "normalTexture" : {
                "index" : 1,
                "texCoord" : 0
            },
            "pbrMetallicRoughness" : {
                "baseColorTexture" : {
                    "index" : 2,
                    "texCoord" : 0
                },
                "metallicFactor" : 0,
                "roughnessFactor" : 0.19565218687057495
            }
        },
        {
            "doubleSided" : true,
            "emissiveFactor" : [
                0,
                0,
                0
            ],
            "name" : "Material.004",
            "pbrMetallicRoughness" : {
                "baseColorFactor" : [
                    0.001546952873468399,
                    0.001546952873468399,
                    0.001546952873468399,
                    1
                ],
                "metallicFactor" : 0,
                "roughnessFactor" : 1
            }
        },
        {
            "doubleSided" : true,
            "emissiveFactor" : [
                0,
                0,
                0
            ],
            "name" : "Material.002",
            "pbrMetallicRoughness" : {
                "baseColorTexture" : {
                    "index" : 3,
                    "texCoord" : 0
                },
                "metallicFactor" : 1,
                "roughnessFactor" : 0.20000000298023224
            }
        },
        {
            "doubleSided" : true,
            "emissiveFactor" : [
                0,
                0,
                0
            ],
            "name" : "tousin.001",
            "normalTexture" : {
                "index" : 4,
                "scale" : 2,
                "texCoord" : 0
            },
            "pbrMetallicRoughness" : {
                "baseColorTexture" : {
                    "index" : 5,
                    "texCoord" : 0
                },
                "metallicFactor" : 1,
                "roughnessFactor" : 0.20000000298023224
            }
        }
    ],
    "meshes" : [
        {
            "name" : "Cube",
            "primitives" : [
                {
                    "attributes" : {
                        "POSITION" : 0,
                        "NORMAL" : 1,
                        "TEXCOORD_0" : 2
                    },
                    "indices" : 3,
                    "material" : 0
                },
                {
                    "attributes" : {
                        "POSITION" : 4,
                        "NORMAL" : 5,
                        "TEXCOORD_0" : 6
                    },
                    "indices" : 7,
                    "material" : 1
                },
                {
                    "attributes" : {
                        "POSITION" : 8,
                        "NORMAL" : 9,
                        "TEXCOORD_0" : 10
                    },
                    "indices" : 11,
                    "material" : 2
                }
            ]
        },
        {
            "name" : "Cube.002",
            "primitives" : [
                {
                    "attributes" : {
                        "POSITION" : 12,
                        "NORMAL" : 13,
                        "TEXCOORD_0" : 14
                    },
                    "indices" : 15,
                    "material" : 3
                }
            ]
        },
        {
            "name" : "Cube.003",
            "primitives" : [
                {
                    "attributes" : {
                        "POSITION" : 16,
                        "NORMAL" : 17,
                        "TEXCOORD_0" : 18
                    },
                    "indices" : 15,
                    "material" : 3
                }
            ]
        },
        {
            "name" : "Plane",
            "primitives" : [
                {
                    "attributes" : {
                        "POSITION" : 19,
                        "NORMAL" : 20,
                        "TEXCOORD_0" : 21
                    },
                    "indices" : 22,
                    "material" : 4
                }
            ]
        },
        {
            "name" : "Plane.001",
            "primitives" : [
                {
                    "attributes" : {
                        "POSITION" : 23,
                        "NORMAL" : 24,
                        "TEXCOORD_0" : 25
                    },
                    "indices" : 26,
                    "material" : 5
                }
            ]
        }
    ],
    "textures" : [
        {
            "source" : 0
        },
        {
            "source" : 1
        },
        {
            "source" : 2
        },
        {
            "source" : 3
        },
        {
            "source" : 4
        },
        {
            "source" : 5
        }
    ],
    "images" : [
        {
            "mimeType" : "image/png",
            "name" : "kabe_diffuse",
            "uri" : "kabe_diffuse.png"
        },
        {
            "mimeType" : "image/png",
            "name" : "Marble012_1K_Normal",
            "uri" : "Marble012_1K_Normal.png"
        },
        {
            "mimeType" : "image/png",
            "name" : "Marble012_1K_Color",
            "uri" : "Marble012_1K_Color.png"
        },
        {
            "mimeType" : "image/png",
            "name" : "mitutada_kadai-mitutada_hennsyuugo2.png",
            "uri" : "mitutada_kadai-mitutada_hennsyuugo2_png.png"
        },
        {
            "mimeType" : "image/png",
            "name" : "mumei _normal",
            "uri" : "mumei%20_normal.png"
        },
        {
            "mimeType" : "image/png",
            "name" : "mumei",
            "uri" : "mumei.png"
        }
    ],
    "accessors" : [
        {
            "bufferView" : 0,
            "componentType" : 5126,
            "count" : 242,
            "max" : [
                18.061155319213867,
                12.452960014343262,
                20.95652961730957
            ],
            "min" : [
                -18.061155319213867,
                -15.641373634338379,
                -20.95652961730957
            ],
            "type" : "VEC3"
        },
        {
            "bufferView" : 1,
            "componentType" : 5126,
            "count" : 242,
            "type" : "VEC3"
        },
        {
            "bufferView" : 2,
            "componentType" : 5126,
            "count" : 242,
            "type" : "VEC2"
        },
        {
            "bufferView" : 3,
            "componentType" : 5123,
            "count" : 510,
            "type" : "SCALAR"
        },
        {
            "bufferView" : 4,
            "componentType" : 5126,
            "count" : 28,
            "max" : [
                16.31633758544922,
                11.925349235534668,
                18.9320011138916
            ],
            "min" : [
                -16.31633758544922,
                11.925349235534668,
                -18.9320011138916
            ],
            "type" : "VEC3"
        },
        {
            "bufferView" : 5,
            "componentType" : 5126,
            "count" : 28,
            "type" : "VEC3"
        },
        {
            "bufferView" : 6,
            "componentType" : 5126,
            "count" : 28,
            "type" : "VEC2"
        },
        {
            "bufferView" : 7,
            "componentType" : 5123,
            "count" : 78,
            "type" : "SCALAR"
        },
        {
            "bufferView" : 8,
            "componentType" : 5126,
            "count" : 4,
            "max" : [
                16.31633758544922,
                -14.58047103881836,
                18.9320011138916
            ],
            "min" : [
                -16.31633758544922,
                -14.58047103881836,
                -18.9320011138916
            ],
            "type" : "VEC3"
        },
        {
            "bufferView" : 9,
            "componentType" : 5126,
            "count" : 4,
            "type" : "VEC3"
        },
        {
            "bufferView" : 10,
            "componentType" : 5126,
            "count" : 4,
            "type" : "VEC2"
        },
        {
            "bufferView" : 11,
            "componentType" : 5123,
            "count" : 6,
            "type" : "SCALAR"
        },
        {
            "bufferView" : 12,
            "componentType" : 5126,
            "count" : 24,
            "max" : [
                10,
                10,
                10
            ],
            "min" : [
                -10,
                -10,
                -10
            ],
            "type" : "VEC3"
        },
        {
            "bufferView" : 13,
            "componentType" : 5126,
            "count" : 24,
            "type" : "VEC3"
        },
        {
            "bufferView" : 14,
            "componentType" : 5126,
            "count" : 24,
            "type" : "VEC2"
        },
        {
            "bufferView" : 15,
            "componentType" : 5123,
            "count" : 36,
            "type" : "SCALAR"
        },
        {
            "bufferView" : 16,
            "componentType" : 5126,
            "count" : 24,
            "max" : [
                10,
                10,
                10
            ],
            "min" : [
                -10,
                -10,
                -10
            ],
            "type" : "VEC3"
        },
        {
            "bufferView" : 17,
            "componentType" : 5126,
            "count" : 24,
            "type" : "VEC3"
        },
        {
            "bufferView" : 18,
            "componentType" : 5126,
            "count" : 24,
            "type" : "VEC2"
        },
        {
            "bufferView" : 19,
            "componentType" : 5126,
            "count" : 1173,
            "max" : [
                1.491245985031128,
                -1.027606725692749,
                33.518577575683594
            ],
            "min" : [
                -1.7880795001983643,
                -2.7672622203826904,
                -15.45296859741211
            ],
            "type" : "VEC3"
        },
        {
            "bufferView" : 20,
            "componentType" : 5126,
            "count" : 1173,
            "type" : "VEC3"
        },
        {
            "bufferView" : 21,
            "componentType" : 5126,
            "count" : 1173,
            "type" : "VEC2"
        },
        {
            "bufferView" : 22,
            "componentType" : 5123,
            "count" : 3675,
            "type" : "SCALAR"
        },
        {
            "bufferView" : 23,
            "componentType" : 5126,
            "count" : 803,
            "max" : [
                0.48476487398147583,
                21.18006706237793,
                1.487884759902954
            ],
            "min" : [
                -1.4878841638565063,
                -17.45257568359375,
                -0.48476487398147583
            ],
            "type" : "VEC3"
        },
        {
            "bufferView" : 24,
            "componentType" : 5126,
            "count" : 803,
            "type" : "VEC3"
        },
        {
            "bufferView" : 25,
            "componentType" : 5126,
            "count" : 803,
            "type" : "VEC2"
        },
        {
            "bufferView" : 26,
            "componentType" : 5123,
            "count" : 3357,
            "type" : "SCALAR"
        }
    ],
    "bufferViews" : [
        {
            "buffer" : 0,
            "byteLength" : 2904,
            "byteOffset" : 0
        },
        {
            "buffer" : 0,
            "byteLength" : 2904,
            "byteOffset" : 2904
        },
        {
            "buffer" : 0,
            "byteLength" : 1936,
            "byteOffset" : 5808
        },
        {
            "buffer" : 0,
            "byteLength" : 1020,
            "byteOffset" : 7744
        },
        {
            "buffer" : 0,
            "byteLength" : 336,
            "byteOffset" : 8764
        },
        {
            "buffer" : 0,
            "byteLength" : 336,
            "byteOffset" : 9100
        },
        {
            "buffer" : 0,
            "byteLength" : 224,
            "byteOffset" : 9436
        },
        {
            "buffer" : 0,
            "byteLength" : 156,
            "byteOffset" : 9660
        },
        {
            "buffer" : 0,
            "byteLength" : 48,
            "byteOffset" : 9816
        },
        {
            "buffer" : 0,
            "byteLength" : 48,
            "byteOffset" : 9864
        },
        {
            "buffer" : 0,
            "byteLength" : 32,
            "byteOffset" : 9912
        },
        {
            "buffer" : 0,
            "byteLength" : 12,
            "byteOffset" : 9944
        },
        {
            "buffer" : 0,
            "byteLength" : 288,
            "byteOffset" : 9956
        },
        {
            "buffer" : 0,
            "byteLength" : 288,
            "byteOffset" : 10244
        },
        {
            "buffer" : 0,
            "byteLength" : 192,
            "byteOffset" : 10532
        },
        {
            "buffer" : 0,
            "byteLength" : 72,
            "byteOffset" : 10724
        },
        {
            "buffer" : 0,
            "byteLength" : 288,
            "byteOffset" : 10796
        },
        {
            "buffer" : 0,
            "byteLength" : 288,
            "byteOffset" : 11084
        },
        {
            "buffer" : 0,
            "byteLength" : 192,
            "byteOffset" : 11372
        },
        {
            "buffer" : 0,
            "byteLength" : 14076,
            "byteOffset" : 11564
        },
        {
            "buffer" : 0,
            "byteLength" : 14076,
            "byteOffset" : 25640
        },
        {
            "buffer" : 0,
            "byteLength" : 9384,
            "byteOffset" : 39716
        },
        {
            "buffer" : 0,
            "byteLength" : 7350,
            "byteOffset" : 49100
        },
        {
            "buffer" : 0,
            "byteLength" : 9636,
            "byteOffset" : 56452
        },
        {
            "buffer" : 0,
            "byteLength" : 9636,
            "byteOffset" : 66088
        },
        {
            "buffer" : 0,
            "byteLength" : 6424,
            "byteOffset" : 75724
        },
        {
            "buffer" : 0,
            "byteLength" : 6714,
            "byteOffset" : 82148
        }
    ],
    "buffers" : [
        {
            "byteLength" : 88864,
            "uri" : "webvr.bin"
        }
    ]
}
