{
    "asset" : {
        "generator" : "Khronos glTF Blender I/O v1.1.45",
        "version" : "2.0"
    },
    "scene" : 0,
    "scenes" : [
        {
            "name" : "Scene",
            "nodes" : [
                0
            ]
        }
    ],
    "nodes" : [
        {
            "mesh" : 0,
            "name" : "tousin.002",
            "rotation" : [
                0.5790602564811707,
                0.4058188498020172,
                -0.4058195948600769,
                -0.5790601968765259
            ],
            "scale" : [
                4.223189353942871,
                4.118959903717041,
                4.223189353942871
            ],
            "translation" : [
                0.4228639602661133,
                -9.739031791687012,
                13.711960792541504
            ]
        }
    ],
    "materials" : [
        {
            "doubleSided" : true,
            "emissiveFactor" : [
                0,
                0,
                0
            ],
            "name" : "tousin.001",
            "normalTexture" : {
                "index" : 0,
                "scale" : 2,
                "texCoord" : 0
            },
            "pbrMetallicRoughness" : {
                "baseColorTexture" : {
                    "index" : 1,
                    "texCoord" : 0
                },
                "metallicFactor" : 1,
                "roughnessFactor" : 0.20000000298023224
            }
        }
    ],
    "meshes" : [
        {
            "name" : "Plane.002",
            "primitives" : [
                {
                    "attributes" : {
                        "POSITION" : 0,
                        "NORMAL" : 1,
                        "TEXCOORD_0" : 2
                    },
                    "indices" : 3,
                    "material" : 0
                }
            ]
        }
    ],
    "textures" : [
        {
            "source" : 0
        },
        {
            "source" : 1
        }
    ],
    "images" : [
        {
            "bufferView" : 4,
            "mimeType" : "image/png",
            "name" : "mumei _normal"
        },
        {
            "bufferView" : 5,
            "mimeType" : "image/png",
            "name" : "mumei"
        }
    ],
    "accessors" : [
        {
            "bufferView" : 0,
            "componentType" : 5126,
            "count" : 1606,
            "max" : [
                0.48476487398147583,
                21.180068969726562,
                4.637004852294922
            ],
            "min" : [
                -1.5988560914993286,
                -17.45257568359375,
                -0.48476487398147583
            ],
            "type" : "VEC3"
        },
        {
            "bufferView" : 1,
            "componentType" : 5126,
            "count" : 1606,
            "type" : "VEC3"
        },
        {
            "bufferView" : 2,
            "componentType" : 5126,
            "count" : 1606,
            "type" : "VEC2"
        },
        {
            "bufferView" : 3,
            "componentType" : 5123,
            "count" : 6714,
            "type" : "SCALAR"
        }
    ],
    "bufferViews" : [
        {
            "buffer" : 0,
            "byteLength" : 19272,
            "byteOffset" : 0
        },
        {
            "buffer" : 0,
            "byteLength" : 19272,
            "byteOffset" : 19272
        },
        {
            "buffer" : 0,
            "byteLength" : 12848,
            "byteOffset" : 38544
        },
        {
            "buffer" : 0,
            "byteLength" : 13428,
            "byteOffset" : 51392
        },
        {
            "buffer" : 0,
            "byteLength" : 85428,
            "byteOffset" : 64820
        },
        {
            "buffer" : 0,
            "byteLength" : 159525,
            "byteOffset" : 150248
        }
    ],
    "buffers" : [
        {
            "byteLength" : 309776,
            "uri" : "data:application/octet-stream;base64,"
        }
    ]
}
